<svg width="48" height="54" viewBox="0 0 48 54" fill="none" xmlns="http://www.w3.org/2000/svg">
<path d="M46.72 35.5601L41.92 30.7335V18.8401C41.9839 14.4237 40.4476 10.1332 37.595 6.76102C34.7423 3.38883 30.7659 1.16262 26.4 0.493458C23.8662 0.159771 21.2903 0.370298 18.8443 1.11099C16.3982 1.85169 14.1383 3.10552 12.2153 4.78882C10.2922 6.47213 8.75025 8.5462 7.69228 10.8726C6.63431 13.1991 6.08466 15.7244 6.07999 18.2801V30.7335L1.27999 35.5601C0.677074 36.1731 0.268214 36.9502 0.104525 37.7943C-0.0591633 38.6383 0.0295815 39.5119 0.359665 40.3058C0.689749 41.0997 1.24653 41.7787 1.96039 42.2579C2.67426 42.7371 3.51354 42.9953 4.37332 43.0001H13.3333V43.9068C13.4579 46.614 14.6505 49.1614 16.6499 50.9909C18.6493 52.8203 21.2924 53.7826 24 53.6668C26.7076 53.7826 29.3507 52.8203 31.3501 50.9909C33.3495 49.1614 34.5421 46.614 34.6667 43.9068V43.0001H43.6267C44.4864 42.9953 45.3257 42.7371 46.0396 42.2579C46.7535 41.7787 47.3102 41.0997 47.6403 40.3058C47.9704 39.5119 48.0591 38.6383 47.8955 37.7943C47.7318 36.9502 47.3229 36.1731 46.72 35.5601V35.5601ZM29.3333 43.9068C29.1854 45.1895 28.5484 46.3656 27.5549 47.1902C26.5613 48.0149 25.288 48.4244 24 48.3335C22.712 48.4244 21.4387 48.0149 20.4451 47.1902C19.4516 46.3656 18.8145 45.1895 18.6667 43.9068V43.0001H29.3333V43.9068ZM6.69333 37.6668L9.83999 34.5201C10.3391 34.024 10.7351 33.4339 11.0051 32.784C11.2751 32.1341 11.4139 31.4372 11.4133 30.7335V18.2801C11.4148 16.4812 11.801 14.7034 12.5461 13.066C13.2912 11.4286 14.3779 9.9696 15.7333 8.78679C17.0704 7.57528 18.6549 6.66879 20.3769 6.13008C22.0989 5.59136 23.9175 5.43329 25.7067 5.66679C28.7906 6.16753 31.5899 7.76549 33.589 10.1665C35.5882 12.5675 36.6528 15.6098 36.5867 18.7335V30.7335C36.5826 31.4354 36.7171 32.1312 36.9825 32.781C37.248 33.4308 37.639 34.0218 38.1333 34.5201L41.3067 37.6668H6.69333Z" fill="#64FFDA"/>
</svg>
