<svg width="48" height="44" viewBox="0 0 48 44" fill="none" xmlns="http://www.w3.org/2000/svg">
<path d="M46.9867 1.2535C46.6769 1.00289 46.3149 0.824896 45.9272 0.732601C45.5396 0.640306 45.1362 0.636057 44.7467 0.720167L24 5.38683L3.25334 0.666833C2.85768 0.577472 2.44684 0.579552 2.0521 0.672915C1.65735 0.766278 1.28911 0.948464 0.975398 1.20561C0.661685 1.46275 0.410768 1.78807 0.241744 2.15681C0.0727209 2.52555 -0.00995414 2.92799 1.15589e-05 3.3335V35.8668C-0.0150541 36.4833 0.183971 37.0859 0.56321 37.5721C0.942448 38.0583 1.47846 38.398 2.08001 38.5335L23.4133 43.3335H24H24.5867L45.92 38.5335C46.5216 38.398 47.0576 38.0583 47.4368 37.5721C47.8161 37.0859 48.0151 36.4833 48 35.8668V3.3335C47.9982 2.93295 47.9061 2.53797 47.7307 2.17788C47.5552 1.81778 47.301 1.50184 46.9867 1.2535V1.2535ZM5.33334 6.66683L21.3333 10.2668V37.3335L5.33334 33.7335V6.66683ZM42.6667 33.7335L26.6667 37.3335V10.2668L42.6667 6.66683V33.7335Z" fill="#64FFDA"/>
</svg>
