<svg width="54" height="54" viewBox="0 0 54 54" fill="none" xmlns="http://www.w3.org/2000/svg">
<path d="M27.0001 13.6667C24.2016 13.6667 21.4742 14.5472 19.2039 16.1835C16.9337 17.8198 15.2359 20.1289 14.351 22.7837C13.466 25.4385 13.4388 28.3045 14.2732 30.9757C15.1076 33.6468 16.7613 35.9877 19.0001 37.6667V48.3334C19.0001 49.7479 19.562 51.1045 20.5622 52.1047C21.5624 53.1048 22.9189 53.6667 24.3334 53.6667H29.6667C31.0812 53.6667 32.4378 53.1048 33.438 52.1047C34.4382 51.1045 35.0001 49.7479 35.0001 48.3334V37.6667C37.2388 35.9877 38.8925 33.6468 39.7269 30.9757C40.5613 28.3045 40.5341 25.4385 39.6492 22.7837C38.7642 20.1289 37.0664 17.8198 34.7962 16.1835C32.526 14.5472 29.7985 13.6667 27.0001 13.6667V13.6667ZM31.0001 33.9067C30.5931 34.1417 30.2555 34.48 30.0214 34.8874C29.7872 35.2948 29.6649 35.7569 29.6667 36.2267V48.3334H24.3334V36.2267C24.3353 35.7569 24.2129 35.2948 23.9788 34.8874C23.7447 34.48 23.407 34.1417 23.0001 33.9067C21.7871 33.2064 20.7792 32.1999 20.0773 30.9879C19.3753 29.7758 19.0039 28.4007 19.0001 27.0001C19.0001 24.8783 19.8429 22.8435 21.3432 21.3432C22.8435 19.8429 24.8783 19.0001 27.0001 19.0001C29.1218 19.0001 31.1566 19.8429 32.6569 21.3432C34.1572 22.8435 35.0001 24.8783 35.0001 27.0001C34.9963 28.4007 34.6249 29.7758 33.9229 30.9879C33.221 32.1999 32.2131 33.2064 31.0001 33.9067Z" fill="#64FFDA"/>
<path d="M27 10.9999C27.7073 10.9999 28.3856 10.719 28.8857 10.2189C29.3858 9.71877 29.6667 9.0405 29.6667 8.33325V2.99992C29.6667 2.29267 29.3858 1.6144 28.8857 1.1143C28.3856 0.614203 27.7073 0.333252 27 0.333252C26.2928 0.333252 25.6145 0.614203 25.1144 1.1143C24.6143 1.6144 24.3334 2.29267 24.3334 2.99992V8.33325C24.3334 9.0405 24.6143 9.71877 25.1144 10.2189C25.6145 10.719 26.2928 10.9999 27 10.9999Z" fill="#64FFDA"/>
<path d="M51 24.3333H45.6667C44.9594 24.3333 44.2811 24.6142 43.781 25.1143C43.2809 25.6144 43 26.2927 43 26.9999C43 27.7072 43.2809 28.3854 43.781 28.8855C44.2811 29.3856 44.9594 29.6666 45.6667 29.6666H51C51.7072 29.6666 52.3855 29.3856 52.8856 28.8855C53.3857 28.3854 53.6667 27.7072 53.6667 26.9999C53.6667 26.2927 53.3857 25.6144 52.8856 25.1143C52.3855 24.6142 51.7072 24.3333 51 24.3333Z" fill="#64FFDA"/>
<path d="M8.33337 24.3333H3.00004C2.2928 24.3333 1.61452 24.6142 1.11442 25.1143C0.614325 25.6144 0.333374 26.2927 0.333374 26.9999C0.333374 27.7072 0.614325 28.3854 1.11442 28.8855C1.61452 29.3856 2.2928 29.6666 3.00004 29.6666H8.33337C9.04062 29.6666 9.71889 29.3856 10.219 28.8855C10.7191 28.3854 11 27.7072 11 26.9999C11 26.2927 10.7191 25.6144 10.219 25.1143C9.71889 24.6142 9.04062 24.3333 8.33337 24.3333Z" fill="#64FFDA"/>
<path d="M15.4267 12.1199L11.5867 8.33319C11.0669 7.84166 10.3731 7.57676 9.65795 7.59676C8.94281 7.61676 8.26491 7.92004 7.77338 8.43986C7.28184 8.95968 7.01694 9.65348 7.03694 10.3686C7.05695 11.0838 7.36022 11.7617 7.88004 12.2532L11.72 15.9599C11.9777 16.2087 12.2829 16.403 12.6174 16.5313C12.9518 16.6596 13.3087 16.7192 13.6667 16.7065C14.0259 16.7052 14.3812 16.6312 14.7111 16.4892C15.041 16.3471 15.3389 16.1399 15.5867 15.8799C16.0627 15.3594 16.3131 14.6715 16.2831 13.9668C16.2532 13.2621 15.9452 12.598 15.4267 12.1199V12.1199Z" fill="#64FFDA"/>
<path d="M46.1733 8.46661C45.6737 7.96994 44.9978 7.69116 44.2933 7.69116C43.5888 7.69116 42.9129 7.96994 42.4133 8.46661L38.5733 12.1199C38.0766 12.6196 37.7979 13.2954 37.7979 13.9999C37.7979 14.7044 38.0766 15.3803 38.5733 15.8799C38.8212 16.1399 39.119 16.3472 39.4489 16.4893C39.7789 16.6313 40.1341 16.7052 40.4933 16.7066C41.1799 16.7039 41.839 16.4364 42.3333 15.9599L46.1733 12.2533C46.4232 12.0054 46.6216 11.7104 46.757 11.3855C46.8924 11.0605 46.9621 10.712 46.9621 10.3599C46.9621 10.0079 46.8924 9.65936 46.757 9.33441C46.6216 9.00945 46.4232 8.71451 46.1733 8.46661V8.46661Z" fill="#64FFDA"/>
</svg>
