<svg width="44" height="54" viewBox="0 0 44 54" fill="none" xmlns="http://www.w3.org/2000/svg">
<path d="M40.6667 48.3333H3.33335C2.62611 48.3333 1.94783 48.6142 1.44774 49.1143C0.947639 49.6144 0.666687 50.2927 0.666687 50.9999C0.666687 51.7072 0.947639 52.3854 1.44774 52.8855C1.94783 53.3856 2.62611 53.6666 3.33335 53.6666H40.6667C41.3739 53.6666 42.0522 53.3856 42.5523 52.8855C43.0524 52.3854 43.3334 51.7072 43.3334 50.9999C43.3334 50.2927 43.0524 49.6144 42.5523 49.1143C42.0522 48.6142 41.3739 48.3333 40.6667 48.3333Z" fill="#64FFDA"/>
<path d="M3.33333 42.9999H3.57333L14.6933 41.9866C15.9115 41.8653 17.0508 41.3286 17.92 40.4666L41.92 16.4666C42.8515 15.4825 43.3549 14.1693 43.3199 12.8147C43.285 11.4601 42.7144 10.1746 41.7333 9.23995L34.4267 1.93328C33.473 1.03754 32.2234 0.52357 30.9155 0.489152C29.6077 0.454734 28.3327 0.902265 27.3333 1.74661L3.33333 25.7466C2.47137 26.6159 1.93468 27.7552 1.81333 28.9733L0.666664 40.0933C0.630742 40.4839 0.681423 40.8776 0.815094 41.2463C0.948766 41.6151 1.16214 41.9498 1.44 42.2266C1.68917 42.4738 1.98468 42.6693 2.30958 42.802C2.63448 42.9347 2.98238 43.002 3.33333 42.9999V42.9999ZM30.72 5.66661L38 12.9466L32.6667 18.1466L25.52 10.9999L30.72 5.66661ZM6.98666 29.4266L22 14.5199L29.2 21.7199L14.2667 36.6533L6.26666 37.3999L6.98666 29.4266Z" fill="#64FFDA"/>
</svg>
