<svg width="54" height="48" viewBox="0 0 54 48" fill="none" xmlns="http://www.w3.org/2000/svg">
<path d="M19 21.3333C21.1096 21.3333 23.1719 20.7077 24.9261 19.5357C26.6802 18.3636 28.0474 16.6977 28.8547 14.7486C29.662 12.7996 29.8733 10.6548 29.4617 8.58571C29.0501 6.51658 28.0342 4.61596 26.5425 3.1242C25.0507 1.63244 23.1501 0.616537 21.0809 0.204962C19.0118 -0.206614 16.8671 0.00462166 14.918 0.811956C12.9689 1.61929 11.303 2.98646 10.131 4.74059C8.9589 6.49471 8.33331 8.557 8.33331 10.6667C8.33331 13.4956 9.45712 16.2088 11.4575 18.2091C13.4579 20.2095 16.171 21.3333 19 21.3333ZM19 5.33334C20.0548 5.33334 21.086 5.64613 21.963 6.23217C22.8401 6.8182 23.5237 7.65115 23.9273 8.62569C24.331 9.60023 24.4366 10.6726 24.2308 11.7072C24.025 12.7417 23.5171 13.692 22.7712 14.4379C22.0253 15.1838 21.075 15.6917 20.0405 15.8975C19.0059 16.1033 17.9335 15.9977 16.959 15.594C15.9845 15.1904 15.1515 14.5068 14.5655 13.6297C13.9794 12.7527 13.6666 11.7215 13.6666 10.6667C13.6666 9.25218 14.2285 7.89563 15.2287 6.89543C16.2289 5.89524 17.5855 5.33334 19 5.33334Z" fill="#64FFDA"/>
<path d="M40.3333 26.6667C41.9156 26.6667 43.4623 26.1976 44.7779 25.3185C46.0935 24.4395 47.1188 23.19 47.7244 21.7282C48.3299 20.2664 48.4883 18.6579 48.1796 17.106C47.8709 15.5542 47.109 14.1287 45.9902 13.0099C44.8713 11.8911 43.4459 11.1292 41.894 10.8205C40.3422 10.5118 38.7337 10.6702 37.2718 11.2757C35.81 11.8812 34.5606 12.9066 33.6816 14.2222C32.8025 15.5378 32.3333 17.0845 32.3333 18.6668C32.3333 20.7885 33.1762 22.8233 34.6765 24.3236C36.1767 25.8239 38.2116 26.6667 40.3333 26.6667ZM40.3333 16.0001C40.8607 16.0001 41.3763 16.1565 41.8148 16.4495C42.2534 16.7425 42.5952 17.159 42.797 17.6463C42.9988 18.1335 43.0516 18.6697 42.9487 19.187C42.8458 19.7043 42.5919 20.1794 42.2189 20.5524C41.846 20.9253 41.3708 21.1793 40.8536 21.2822C40.3363 21.3851 39.8001 21.3323 39.3128 21.1304C38.8256 20.9286 38.4091 20.5868 38.1161 20.1483C37.823 19.7097 37.6666 19.1942 37.6666 18.6668C37.6666 17.9595 37.9476 17.2812 38.4477 16.7811C38.9478 16.281 39.6261 16.0001 40.3333 16.0001Z" fill="#64FFDA"/>
<path d="M40.3333 29.3336C37.3782 29.3368 34.5079 30.3217 32.1733 32.1336C29.5613 29.5318 26.2375 27.7618 22.6208 27.0467C19.0042 26.3316 15.2568 26.7034 11.8513 28.1153C8.44567 29.5271 5.53441 31.9158 3.48462 34.9801C1.43483 38.0443 0.3383 41.6469 0.333313 45.3336C0.333313 46.0408 0.614264 46.7191 1.11436 47.2192C1.61446 47.7193 2.29274 48.0002 2.99998 48.0002C3.70722 48.0002 4.3855 47.7193 4.8856 47.2192C5.38569 46.7191 5.66665 46.0408 5.66665 45.3336C5.66665 41.7973 7.0714 38.406 9.57189 35.9055C12.0724 33.405 15.4638 32.0002 19 32.0002C22.5362 32.0002 25.9276 33.405 28.4281 35.9055C30.9286 38.406 32.3333 41.7973 32.3333 45.3336C32.3333 46.0408 32.6143 46.7191 33.1144 47.2192C33.6145 47.7193 34.2927 48.0002 35 48.0002C35.7072 48.0002 36.3855 47.7193 36.8856 47.2192C37.3857 46.7191 37.6666 46.0408 37.6666 45.3336C37.673 42.2094 36.8838 39.135 35.3733 36.4002C36.5518 35.469 37.9686 34.8883 39.4616 34.7247C40.9547 34.561 42.4637 34.821 43.8159 35.4748C45.1681 36.1287 46.3089 37.15 47.1078 38.4219C47.9067 39.6938 48.3314 41.1649 48.3333 42.6669C48.3333 43.3741 48.6143 44.0524 49.1144 44.5525C49.6145 45.0526 50.2927 45.3336 51 45.3336C51.7072 45.3336 52.3855 45.0526 52.8856 44.5525C53.3857 44.0524 53.6666 43.3741 53.6666 42.6669C53.6666 39.1307 52.2619 35.7393 49.7614 33.2388C47.2609 30.7383 43.8695 29.3336 40.3333 29.3336Z" fill="#64FFDA"/>
</svg>
