<svg width="42" height="42" viewBox="0 0 42 42" fill="none" xmlns="http://www.w3.org/2000/svg">
<path d="M26.5125 14.7C25.1712 14.6954 23.8422 14.9553 22.6015 15.4649C21.3608 15.9744 20.2327 16.7237 19.2818 17.6697C18.331 18.6157 17.5759 19.7399 17.06 20.9779C16.5441 22.216 16.2773 23.5437 16.275 24.885V35.175C16.275 35.5927 16.441 35.9933 16.7363 36.2887C17.0317 36.5841 17.4323 36.75 17.85 36.75H21.525C21.9427 36.75 22.3433 36.5841 22.6387 36.2887C22.9341 35.9933 23.1 35.5927 23.1 35.175V24.885C23.0997 24.4079 23.1999 23.9362 23.3941 23.5005C23.5883 23.0647 23.8721 22.6748 24.2271 22.3561C24.5821 22.0375 25.0003 21.7972 25.4544 21.651C25.9085 21.5047 26.3883 21.4559 26.8625 21.5075C27.713 21.6146 28.4947 22.0302 29.0591 22.6753C29.6236 23.3204 29.9317 24.1503 29.925 25.0075V35.175C29.925 35.5927 30.091 35.9933 30.3863 36.2887C30.6817 36.5841 31.0823 36.75 31.5 36.75H35.175C35.5927 36.75 35.9933 36.5841 36.2887 36.2887C36.5841 35.9933 36.75 35.5927 36.75 35.175V24.885C36.7477 23.5437 36.481 22.216 35.965 20.9779C35.4491 19.7399 34.6941 18.6157 33.7432 17.6697C32.7924 16.7237 31.6643 15.9744 30.4236 15.4649C29.1828 14.9553 27.8538 14.6954 26.5125 14.7Z" fill="white"/>
<path d="M11.55 16.275H6.825C5.95515 16.275 5.25 16.9802 5.25 17.85V35.175C5.25 36.0449 5.95515 36.75 6.825 36.75H11.55C12.4198 36.75 13.125 36.0449 13.125 35.175V17.85C13.125 16.9802 12.4198 16.275 11.55 16.275Z" fill="white"/>
<path d="M9.1875 13.125C11.3621 13.125 13.125 11.3621 13.125 9.1875C13.125 7.01288 11.3621 5.25 9.1875 5.25C7.01288 5.25 5.25 7.01288 5.25 9.1875C5.25 11.3621 7.01288 13.125 9.1875 13.125Z" fill="white"/>
</svg>
