<svg width="40" height="79" viewBox="0 0 40 79" fill="none" xmlns="http://www.w3.org/2000/svg">
<path d="M32.6461 78.2985C31.8181 78.3013 31.0001 78.1186 30.252 77.7637C29.5039 77.4089 28.8449 76.891 28.3233 76.248L1.55536 42.9959C0.740229 42.0042 0.294617 40.7604 0.294617 39.4767C0.294617 38.193 0.740229 36.9492 1.55536 35.9575L29.2654 2.70544C30.2061 1.57366 31.5579 0.861933 33.0233 0.72682C34.4888 0.591707 35.9479 1.04428 37.0797 1.98497C38.2114 2.92567 38.9232 4.27743 39.0583 5.74288C39.1934 7.20834 38.7408 8.66744 37.8001 9.79921L13.0273 39.5044L36.9688 69.2096C37.6465 70.0231 38.077 71.0137 38.2094 72.0642C38.3417 73.1146 38.1704 74.1811 37.7156 75.1372C37.2608 76.0934 36.5417 76.8992 35.6433 77.4595C34.7449 78.0197 33.7048 78.3109 32.6461 78.2985Z" fill="#64FFDA"/>
</svg>
