<svg width="40" height="79" viewBox="0 0 40 79" fill="none" xmlns="http://www.w3.org/2000/svg">
<path d="M7.36218 0.709793C8.19013 0.706978 9.00819 0.889709 9.75624 1.24456C10.5043 1.59941 11.1633 2.11736 11.685 2.76035L38.4529 36.0124C39.268 37.0041 39.7136 38.2479 39.7136 39.5316C39.7136 40.8153 39.268 42.0591 38.4529 43.0508L10.7428 76.3029C9.80211 77.4346 8.45036 78.1464 6.9849 78.2815C5.51945 78.4166 4.06034 77.964 2.92857 77.0233C1.7968 76.0826 1.08507 74.7309 0.949955 73.2654C0.814842 71.8 1.26741 70.3409 2.20811 69.2091L26.9809 39.5039L3.03941 9.79869C2.36171 8.98521 1.93123 7.99463 1.79889 6.94415C1.66655 5.89366 1.83789 4.82726 2.29264 3.8711C2.7474 2.91495 3.46653 2.10908 4.36495 1.54884C5.26337 0.988594 6.30347 0.697426 7.36218 0.709793Z" fill="#64FFDA"/>
</svg>
