<svg width="32" height="32" viewBox="0 0 32 32" fill="none" xmlns="http://www.w3.org/2000/svg">
<path d="M31.2425 28.7575L25.2925 22.825C27.2122 20.3793 28.2539 17.3592 28.25 14.25C28.25 11.4811 27.4289 8.77431 25.8906 6.47202C24.3522 4.16973 22.1657 2.37532 19.6076 1.31569C17.0494 0.256066 14.2345 -0.0211807 11.5187 0.519012C8.80301 1.05921 6.30845 2.39258 4.35051 4.35051C2.39258 6.30845 1.05921 8.80301 0.519012 11.5187C-0.0211807 14.2345 0.256066 17.0494 1.31569 19.6076C2.37532 22.1657 4.16973 24.3522 6.47202 25.8906C8.77431 27.4289 11.4811 28.25 14.25 28.25C17.3592 28.2539 20.3793 27.2122 22.825 25.2925L28.7575 31.2425C28.9202 31.4065 29.1137 31.5367 29.327 31.6256C29.5403 31.7144 29.769 31.7602 30 31.7602C30.231 31.7602 30.4598 31.7144 30.673 31.6256C30.8863 31.5367 31.0798 31.4065 31.2425 31.2425C31.4065 31.0798 31.5367 30.8863 31.6256 30.673C31.7144 30.4598 31.7602 30.231 31.7602 30C31.7602 29.769 31.7144 29.5403 31.6256 29.327C31.5367 29.1137 31.4065 28.9202 31.2425 28.7575V28.7575ZM3.75001 14.25C3.75001 12.1733 4.36582 10.1432 5.51958 8.41652C6.67333 6.6898 8.31321 5.34399 10.2318 4.54927C12.1505 3.75455 14.2617 3.54662 16.2985 3.95176C18.3353 4.35691 20.2062 5.35693 21.6746 6.82539C23.1431 8.29384 24.1431 10.1648 24.5483 12.2016C24.9534 14.2384 24.7455 16.3496 23.9507 18.2682C23.156 20.1868 21.8102 21.8267 20.0835 22.9804C18.3568 24.1342 16.3267 24.75 14.25 24.75C11.4652 24.75 8.79452 23.6438 6.82539 21.6746C4.85625 19.7055 3.75001 17.0348 3.75001 14.25Z" fill="#8892B0"/>
</svg>
