<svg width="40" height="38" viewBox="0 0 40 38" fill="none" xmlns="http://www.w3.org/2000/svg">
<path d="M20.0001 0.750009C14.9486 0.698678 10.0835 2.65507 6.47384 6.18923C2.86421 9.72338 0.805466 14.5461 0.750061 19.5975C0.769525 23.5896 2.05371 27.4727 4.41817 30.6893C6.78263 33.9058 10.1057 36.2902 13.9101 37.5C14.8726 37.675 15.2226 37.0975 15.2226 36.59C15.2226 36.0825 15.2226 34.9625 15.2226 33.3875C9.86756 34.525 8.73006 30.8675 8.73006 30.8675C8.37358 29.7193 7.61572 28.7378 6.59506 28.1025C4.84506 26.9475 6.73506 26.965 6.73506 26.965C7.33995 27.0459 7.91868 27.2626 8.42785 27.5991C8.93702 27.9355 9.36342 28.3828 9.67506 28.9075C10.2181 29.8492 11.1092 30.5401 12.1566 30.8314C13.2039 31.1226 14.3237 30.9911 15.2751 30.465C15.3729 29.5067 15.8069 28.6139 16.5001 27.945C12.2301 27.4725 7.75006 25.8625 7.75006 18.635C7.71188 16.7497 8.40849 14.9235 9.69256 13.5425C9.10776 11.9239 9.17681 10.1411 9.88506 8.57251C9.88506 8.57251 11.5126 8.06501 15.1351 10.4975C18.2884 9.65723 21.6067 9.65723 24.7601 10.4975C28.4351 8.06501 30.0101 8.57251 30.0101 8.57251C30.7183 10.1411 30.7874 11.9239 30.2026 13.5425C31.5165 14.8981 32.2509 16.7121 32.2501 18.6C32.2501 25.845 27.7351 27.4375 23.5001 27.91C23.9638 28.3602 24.322 28.9076 24.5489 29.5128C24.7759 30.1179 24.8659 30.7659 24.8126 31.41V36.5725C24.8126 36.5725 25.1626 37.675 26.1251 37.4825C29.9186 36.2652 33.2305 33.8802 35.5877 30.6683C37.9448 27.4563 39.2266 23.5815 39.2501 19.5975C39.1947 14.5461 37.1359 9.72338 33.5263 6.18923C29.9167 2.65507 25.0515 0.698678 20.0001 0.750009" fill="#8892B0"/>
</svg>
