<svg width="61" height="62" viewBox="0 0 61 62" fill="none" xmlns="http://www.w3.org/2000/svg">
<path d="M40.6055 36.8633C40.6055 39.2891 39.7031 41.1465 37.8984 42.4355C36.1055 43.7129 33.4688 44.3516 29.9883 44.3516C23.7188 44.3516 20.0684 42.084 19.0371 37.5488L24.0469 36.7227C24.3867 38.0352 25.0488 38.9902 26.0332 39.5879C27.0176 40.1738 28.3828 40.4668 30.1289 40.4668C31.9453 40.4668 33.3047 40.1914 34.207 39.6406C35.1094 39.0898 35.5605 38.2637 35.5605 37.1621C35.5605 36.459 35.3555 35.8789 34.9453 35.4219C34.5352 34.9648 33.9492 34.584 33.1875 34.2793C32.8125 34.127 32.2617 33.9629 31.5352 33.7871C30.8086 33.5996 29.9062 33.3945 28.8281 33.1719C27.5859 32.8789 26.6133 32.6328 25.9102 32.4336C25.207 32.2227 24.6445 32.0234 24.2227 31.8359C23.8008 31.6367 23.3906 31.4199 22.9922 31.1855C22.1133 30.6582 21.4277 29.9551 20.9355 29.0762C20.4434 28.1973 20.1973 27.1016 20.1973 25.7891C20.1973 23.5508 21.0352 21.8398 22.7109 20.6562C24.3984 19.4609 26.8477 18.8633 30.0586 18.8633C33.1289 18.8633 35.4316 19.3438 36.9668 20.3047C38.5137 21.2656 39.5098 22.8535 39.9551 25.0684L34.9277 25.7539C34.6699 24.6875 34.1426 23.8848 33.3457 23.3457C32.5605 22.8066 31.4297 22.5371 29.9531 22.5371C28.3828 22.5371 27.2051 22.7832 26.4199 23.2754C25.6348 23.7676 25.2422 24.5059 25.2422 25.4902C25.2422 26.1348 25.4062 26.6621 25.7344 27.0723C26.0742 27.4824 26.5723 27.834 27.2285 28.127C27.8496 28.4082 29.1797 28.7656 31.2188 29.1992C32.4023 29.457 33.4219 29.7031 34.2773 29.9375C35.1328 30.1602 35.8184 30.377 36.334 30.5879C36.8496 30.8105 37.3066 31.0449 37.7051 31.291C38.1152 31.5371 38.4668 31.8008 38.7598 32.082C39.3574 32.6562 39.8145 33.3418 40.1309 34.1387C40.4473 34.9238 40.6055 35.832 40.6055 36.8633Z" fill="#64FFDA"/>
<path d="M10.4727 10.6016L30.5 2.17002L50.5273 10.6016L58.8403 31L50.5273 51.3984L30.5 59.83L10.4727 51.3984L2.15971 31L10.4727 10.6016Z" stroke="#64FFDA" stroke-width="4"/>
</svg>
